<svg version="1.1" id="dashu" xmlns="http://www.w3.org/2000/svg" xmlns:xlink="http://www.w3.org/1999/xlink" x="0px" y="0px" width="1910" height="674.682722513089" viewBox="0,0,667,323" enable-background="new 0 0 667 323" xml:space="preserve">
  <text id="font" transform="matrix(1.0963,0,0,1.0963,120.0413,66.6815)" fill="#2377C8" font-family="'MicrosoftYaHei'" font-weight="100" font-size="19">Zoomla!逐浪CMS-中国WEB内核与内容管理系统领导者！</text>
  <g id="shu">
    <g id="shugan">
      <path fill="none" stroke="#2377C8" stroke-linecap="round" stroke-linejoin="round" stroke-miterlimit="10" d="
		M357.393,303.395c-5.146-6.563-0.824-26.533-0.541-37.071l0.219-0.771c6.445-5.608,13.354-11.426,18.179-18.928
		c3.99-0.037,8.345-0.021,12.448-1.987c4.255-2.211,6.738-5.994,9.029-9.459c2.254-3.453,4.502-6.996,7.928-9.074
		c3.467-2.02,7.808-2.176,11.924-2.196c-4.109-0.287-8.448-0.537-12.396,1.327c-3.896,1.963-6.548,5.541-9.076,8.814
		c-2.487,3.242-5.213,6.493-8.646,7.893c-2.735,1.072-5.851,1.097-9.062,0.912c0.324-0.643,0.676-1.262,0.966-1.928
		c4.286-10.58,2.967-21.857,1.639-32.374c-1.353-10.489-2.946-21.354,0.408-31.431c3.548-10.023,11.823-17.53,19.803-24.446
		c-8.181,6.68-16.727,13.878-20.733,24.109c-3.78,10.31-2.465,21.467-1.443,32.005c1.04,10.484,1.825,21.521-2.391,30.953
		c-3.965,8.476-11.336,14.805-18.783,20.884c-0.264-7.938-2.36-15.562-5.15-22.661c-3.097-7.846-7.044-15.183-11.115-22.359
		c-0.854-1.53-1.718-3.064-2.576-4.604c-0.31-6.885-0.57-13.938,2.113-20.175c2.942-6.52,8.967-11.145,14.803-15.393
		c5.855-4.274,12.154-8.674,15.719-15.314c3.416-6.728,3.207-22.053,2.898-29.286c0.154,7.239,0.158,22.563-3.336,29.052
		c-3.619,6.407-9.9,10.604-15.852,14.739c-5.945,4.149-12.234,8.651-15.583,15.587c-2.484,5.465-2.813,11.374-2.771,17.158
		c-6.34-11.598-12.014-23.584-12.817-36.654c-0.691-16.224,5.827-31.675,13.241-46.105c-4.069,7.125-7.041,14.362-10.094,22.016
		c-3.033,7.625-5.221,15.771-5.125,24.151c0.06,2.72,0.339,5.396,0.767,8.033c-2.622-4.886-5.64-9.678-10.228-13.153
		c-6.16-4.439-13.723-5.391-20.811-6.196c-7.083-0.792-14.47-1.484-20.563-5.306c-6.021-3.951-9.607-10.574-12.859-16.902
		c3.113,6.397,6.52,13.117,12.587,17.313c6.154,4.058,13.652,4.92,20.721,5.879c7.037,0.942,14.42,2.125,20.03,6.395
		c5.525,4.369,8.641,11.045,11.75,17.456c0,0,9.127,22.584,14.517,33.196c2.654,5.197,5.289,10.516,7.545,15.924
		c-4.466-5.156-9.49-9.908-15.852-13.078c-2.653-1.238-5.37-2.109-8.121-2.71l0.02-0.202c-0.5-0.031-1.004-0.064-1.515-0.097
		c-7.516-1.378-15.255-0.866-22.628-0.326c-10.547,0.802-21.481,1.822-31.365-2.054c-9.823-4.075-16.886-12.733-23.373-21.064
		c6.243,8.521,12.982,17.432,22.991,21.975c10.092,4.313,21.302,3.586,31.88,3.117c3.457-0.158,6.97-0.281,10.458-0.22
		c-3.913,1.908-6.523,5.247-8.925,8.364c-2.5,3.281-5.015,6.68-8.634,8.523c-3.656,1.776-8.003,1.607-12.109,1.334
		c4.087,0.502,8.41,0.98,12.421-0.656c3.964-1.739,6.782-5.146,9.48-8.274c2.669-3.112,5.563-6.249,9.185-7.521
		c3.647-1.219,7.756-0.67,11.841-0.146l0.002-0.027c2.442,0.633,4.81,1.486,7.063,2.641c8.868,4.729,16.831,13.424,20.437,21.574
		c3.604,8.148,3.123,10.871,3.078,16.381c-4.688-2.969-9.728-5.717-15.601-6.514c-7.7-0.836-14.687,2.084-21.158,4.828
		c-6.43,2.754-13.023,5.705-19.971,5.396c-6.951-0.44-13.228-4.341-19.065-8.175c5.668,4.091,11.719,8.332,18.991,9.156
		c7.282,0.664,14.229-2.1,20.798-4.552c6.521-2.452,13.415-4.796,19.987-3.718c5.72,1.023,10.797,4.38,15.753,7.949
		c-1.673,14.641-9.54,28.209-17.116,41.583" style="opacity: 1; stroke-dashoffset: 0; stroke-dasharray: 1529.58;"></path>
    </g>
    <g id="yezi">
      <g>
        <g>
          <path fill="#4DD7D2" d="M353.322,230.355c-1.838-5.371-0.328-9.617,3.568-13.021c3.996-3.523,11.854,1.907,12.133,10.127
				c0.313,4.096-1.885,10.803-4.908,15.994c-2.612,4.822-4.471,8.66-4.479,8.689c0.004,0.071,1.717-4.344-0.177-9.164
				C357.564,237.783,354.33,233.037,353.322,230.355z" transform="matrix(1,0,0,1,0,0)"></path>
        </g>
      </g>
      <g>
        <g>
          <path fill="#4DD7D2" d="M353.021,180.559c6.649-5.176,14.158-3.076,15.319,1.736c1.229,4.928-2.229,9.635-6.983,11.576
				c-2.474,1.013-7.567,1.333-11.731,4.41c-3.942,2.926-3.737,7.998-3.729,7.832c0.108-0.074-0.738-4.08-0.432-9.813
				C345.682,189.918,349.753,183.025,353.021,180.559z" transform="matrix(1,0,0,1,0,0)"></path>
        </g>
      </g>
      <g>
        <g>
          <path fill="#4DD7D2" d="M286.58,142.917c-3.433-3.332-5.373-8.495-4.817-12.515c0.448-4.059,3.109-6.429,6.052-6.718
				c3.124-0.328,5.832,0.774,8.127,1.813c2.261,1.117,3.987,2.541,5.661,5.56c1.439,2.961,4.213,10.221,5.947,17.342
				c1.636,6.459,2.673,11.439,2.709,11.474c0.063,0.081-1.663-5.438-7.22-8.133C297.245,148.853,290.127,146.601,286.58,142.917z" transform="matrix(1,0,0,1,0,0)"></path>
        </g>
      </g>
      <g>
        <g>
          <path fill="#4DD7D2" d="M390.993,163.285c6.058-7.321,17.325-6.25,17.858-0.225c0.558,5.813-0.836,10.231-5.982,13.568
				c-2.653,1.59-8.719,3.6-13.863,7.025c-4.908,3.074-6.234,8.222-6.186,8.158c0.018-0.03,0.811-4.736,1.677-10.822
				C385.211,174.289,387.811,166.752,390.993,163.285z" transform="matrix(1,0,0,1,0,0)"></path>
        </g>
      </g>
      <g>
        <g>
          <path fill="#4DD7D2" d="M275.654,198.085c-8.445-1.456-15.421-8.739-13.354-15.907c2.035-6.976,10.925-10.646,21.069-5.807
				c5.134,2.357,12.915,10.546,16.236,18.641c3.251,7.238,6.553,12.35,6.667,12.363c0.025,0.114-4.071-5.318-11.183-7.336
				C287.363,197.736,279.96,198.848,275.654,198.085z" transform="matrix(1,0,0,1,0,0)"></path>
        </g>
      </g>
      <g>
        <g>
          <path fill="#4DD7D2" d="M264.956,235.561c-9.217-1.017-13.997-10.234-9.757-13.967c4.121-3.718,8.757-4.742,13.902-2.547
				c2.589,1.201,7.234,4.885,12.746,6.633c5.17,1.83,9.657-0.898,9.539-0.879c-0.048-0.008-3.616,2.779-8.777,5.813
				C277.09,234.189,269.461,236.236,264.956,235.561z" transform="matrix(1,0,0,1,0,0)"></path>
        </g>
      </g>
      <g>
        <g>
          <path fill="#4DD7D2" d="M325.245,250.561c-5.683,1.646-10.259-0.279-13.246-4.597c-3.105-4.483,2.837-11.805,11.165-11.692
				c4.093,0,11.827,2.192,16.682,7.633c4.625,5.253,2.457,10.177,2.844,10.018c-0.051,0.021,0.062-1.199-0.502-2.805
				c-0.539-1.666-2.504-3.159-4.707-3.018C332.666,246.409,328.036,249.768,325.245,250.561z" transform="matrix(1,0,0,1,0,0)"></path>
        </g>
      </g>
      <g>
        <g>
          <path fill="#4DD7D2" d="M351.07,119.31c-2.728-6.291-1.271-12.202,3.537-15.561c4.856-3.4,12.916,1.906,14.057,10.737
				c0.678,4.423-0.975,11.997-3.268,18.333c-1.994,5.833-2.563,10.723-2.558,10.751c0.003,0.039,0.293-5.195-2.776-10.299
				C356.836,127.71,352.536,122.488,351.07,119.31z" transform="matrix(1,0,0,1,0,0)"></path>
        </g>
      </g>
      <g>
        <g>
          <path fill="#7BFD84" d="M326.4,156.117c-0.297-7.576,5.561-12.679,9.877-10.698c4.447,2.008,6.271,6.819,5.021,12.008
				c-0.719,2.684-3.309,7.675-5.348,12.714c-1.894,4.584-1.974,8.719-1.964,8.719c-0.009,0-0.14-4.156-2.418-8.553
				C329.066,165.582,326.492,159.883,326.4,156.117z" transform="matrix(1,0,0,1,0,0)"></path>
        </g>
      </g>
      <g>
        <g>
          <path fill="#7BFD84" d="M383.193,217.453c-0.754-5.215,2.248-10.139,6.449-10.082c4.151,0.074,7.371,4.344,6.598,10.24
				c-0.438,2.967-2.832,8.109-5.87,12.031c-2.767,3.574-4.552,6.521-4.509,6.588c-0.063,0.028,1.673-3.418,0.793-7.489
				C385.689,224.354,383.525,220.121,383.193,217.453z" transform="matrix(1,0,0,1,0,0)"></path>
        </g>
      </g>
      <g>
        <g>
          <path fill="#7BFD84" d="M403.066,185.162c0.771-1.783,1.651-2.438,3.162-3.569c1.521-1.042,3.355-2.454,5.742-2.735
				c2.239-0.278,4.658,0.914,5.695,3.998c1.152,2.986,0.193,7.946-2.868,11.129c-3.092,3.554-9.573,5.232-14.778,5.851
				c-4.875,0.608-8.319,2.697-8.319,2.728c-0.026-0.014,3.378-2.316,6.005-6.356C400.631,191.766,402.516,186.9,403.066,185.162z" transform="matrix(1,0,0,1,0,0)"></path>
        </g>
      </g>
      <g>
        <g>
          <path fill="#7BFD84" d="M321.392,118.701c3.145-6.096,10.182-7.407,12.504-3.834c2.409,3.645,1.708,8.015-1.519,11.447
				c-1.7,1.756-5.875,4.333-9.41,7.527c-3.25,2.903-4.522,6.474-4.531,6.451c0.023-0.013,1.055-3.49,0.927-7.993
				C319.18,127.414,319.796,121.702,321.392,118.701z" transform="matrix(1,0,0,1,0,0)"></path>
        </g>
      </g>
      <g>
        <g>
          <path fill="#7BFD84" d="M302.503,179.76c-3.802-2.472-5.327-6.148-4.705-10.75c0.559-4.664,9.187-5.796,14.279,0.234
				c2.595,2.854,4.718,9.238,4.546,14.781c0.068,5.041-0.537,8.769-0.5,8.805c0.03,0.104,0.177-4.33-3.356-7.215
				C309.146,182.458,304.488,180.971,302.503,179.76z" transform="matrix(1,0,0,1,0,0)"></path>
        </g>
      </g>
      <g>
        <g>
          <path fill="#7BFD84" d="M253.473,163.796c-5.818-5.36-5.831-12.019-1.886-15.408c4.067-3.463,10.981-0.793,14.255,4.525
				c1.762,2.728,2.924,8.155,6.264,12.497c3.185,4.087,8.393,4.088,8.247,4.078c-0.07-0.094-4.32,0.512-10.249,0.316
				C263.542,169.646,256.348,166.408,253.473,163.796z" transform="matrix(1,0,0,1,0,0)"></path>
        </g>
      </g>
      <g>
        <g>
          <path fill="#7BFD84" d="M307.751,239.689c-3.08,3.301-7.271,4.215-10.868,2.152c-3.613-2.044-2.754-8.857,2.919-12.257
				c2.777-1.739,8.535-2.833,13.464-2.313c4.495,0.309,7.864,0.852,7.895,0.828c0.079-0.021-3.854-0.222-6.723,2.756
				C311.316,233.92,309.303,237.971,307.751,239.689z" transform="matrix(1,0,0,1,0,0)"></path>
        </g>
      </g>
      <g>
        <g>
          <path fill="#7BFD84" d="M328.902,271.195c-3.963,1.447-7.464,0.435-9.574-2.648c-2.098-3.027,1.498-8.146,7.176-8.538
				c2.824-0.235,7.49,1.06,11.348,2.694c3.565,1.466,6.657,1.736,6.674,1.723c0.017,0.012-3.23-0.096-6.541,1.631
				C334.357,267.906,330.927,270.432,328.902,271.195z" transform="matrix(1,0,0,1,0,0)"></path>
        </g>
      </g>
      <g>
        <g>
          <path fill="#7BFD84" d="M262.005,140.922c-3.054-8,2.359-15.542,7.166-13.826c4.799,1.631,7.57,5.182,7.954,10.175
				c0.146,1.446-0.265,3.098-0.311,5.191c-0.013,2.198,0.198,4.888,0.869,7.323c1.042,5.143,6.305,5.472,6.146,5.025
				c0.12,0.26-4.429,0.983-9.478-1.912c-2.815-1.267-5.516-3.087-7.769-5.225C264.254,145.431,262.689,142.729,262.005,140.922z" transform="matrix(1,0,0,1,0,0)"></path>
        </g>
      </g>
      <g>
        <g>
          <path fill="#7BFD84" d="M365.215,209.091c-2.581-0.473-6.097-3.235-5.578-6.643c0.459-3.181,4.282-5.819,9.75-3.06
				c2.813,1.285,5.858,6.371,5.758,10.322c0.104,3.596,0.346,6.214,0.414,6.249c-0.02,0.073-0.597-2.96-3.188-4.866
				C369.438,208.954,366.561,209.27,365.215,209.091z" transform="matrix(1,0,0,1,0,0)"></path>
        </g>
      </g>
      <g>
        <g>
          <path fill="#2377C8" d="M346.688,143.546c0.463-4.854,1.438-8.721,4.25-9.807c2.738-1.149,6.691,4.635,4.775,11.424
				c-0.813,3.39-3.99,7.866-6.979,11.479c-2.762,3.354-4.225,6.86-4.211,6.872c-0.015,0,1.336-3.58,1.717-7.873
				C346.658,150.94,346.6,146.065,346.688,143.546z" transform="matrix(1,0,0,1,0,0)"></path>
        </g>
      </g>
      <g>
        <g>
          <path fill="#2377C8" d="M352.708,159.624c1.883-3.288,5.12-4.854,8.419-3.785c3.232,1.023,3.797,6.595-0.07,10.37
				c-1.906,1.891-6.127,3.787-9.986,4.67c-3.522,0.864-6.084,2.104-6.09,2.139c-0.037-0.004,2.645-1.517,4.168-4.597
				C350.852,165.1,351.747,161.325,352.708,159.624z" transform="matrix(1,0,0,1,0,0)"></path>
        </g>
      </g>
      <g>
        <g>
          <path fill="#2377C8" d="M410.152,208.982c1.58-2.242,4.115-3.412,6.975-2.643c2.749,0.682,3.314,5.764-0.607,8.928
				c-1.896,1.567-5.838,2.609-9.147,2.654c-3.048,0.098-5.353,0.76-5.363,0.788c-0.026-0.008,2.404-0.869,4.192-3.137
				C408.193,213.105,409.352,210.188,410.152,208.982z" transform="matrix(1,0,0,1,0,0)"></path>
        </g>
      </g>
      <g>
        <g>
          <path fill="#2377C8" d="M379.773,146.552c3.055-6.194,11.978-8.087,13.646-3.423c1.519,4.361,1.711,7.969-2.181,11.922
				c-1.938,1.872-6.547,4.488-10.418,7.654c-3.706,2.861-4.635,6.896-4.578,6.877c-0.03-0.02,0.578-3.831,0.787-8.659
				C377.096,155.624,378.007,149.625,379.773,146.552z" transform="matrix(1,0,0,1,0,0)"></path>
        </g>
      </g>
      <g>
        <g>
          <path fill="#2377C8" d="M319.565,213.041c-3.668-0.664-6.704-3.443-6.536-7.044c0.139-3.479,5.039-5.94,10.29-3.388
				c2.589,1.271,6.226,5.156,7.728,9.26c1.363,3.732,2.135,6.49,2.253,6.498c-0.02,0.095-1.339-3.068-4.592-4.24
				C325.163,212.898,321.442,213.41,319.565,213.041z" transform="matrix(1,0,0,1,0,0)"></path>
        </g>
      </g>
      <g>
        <g>
          <path fill="#2377C8" d="M275.902,214.542c-6.271-3.112-7.868-8.992-5.128-12.552c2.817-3.646,8.877-2.981,12.771,0.529
				c2.049,1.791,4.352,6,8.234,8.713c3.673,2.572,7.977,1.262,7.852,1.295c-0.079-0.061-3.448,1.505-8.389,2.848
				C285.786,216.948,278.989,216.063,275.902,214.542z" transform="matrix(1,0,0,1,0,0)"></path>
        </g>
      </g>
      <g>
        <g>
          <path fill="#2377C8" d="M244.729,190.885c-3.041-4.677-2.026-9.854,1.576-11.449c3.637-1.601,8.047,1.25,9.555,6.068
				c0.786,2.456,0.749,7.115,1.341,11.428c0.542,3.98,2.806,6.704,2.771,6.699c0.011-0.033-2.265-2.47-5.804-4.712
				C250.296,196.482,246.285,193.242,244.729,190.885z" transform="matrix(1,0,0,1,0,0)"></path>
        </g>
      </g>
      <g>
        <g>
          <path fill="#2377C8" d="M306.873,113.785c-2.087-2.614-2.823-6.741-0.368-9.343c2.301-2.503,7.614-1.507,10.022,4.136
				c1.261,2.836,0.851,8.031-0.413,11.785c-1.073,3.534-0.925,6.508-0.909,6.525c-0.011,0.02-0.328-3.073-2.276-6.076
				C310.818,117.432,308.011,115.077,306.873,113.785z" transform="matrix(1,0,0,1,0,0)"></path>
        </g>
      </g>
      <g>
        <g>
          <path fill="#2377C8" d="M281.097,114.009c2.833-3.131,7.043-3.303,8.636-0.884c1.653,2.513,0.441,5.956-2.691,7.926
				c-1.623,0.965-5.019,1.954-8.16,3.034c-2.862,1.022-4.726,2.783-4.726,2.782c0.004-0.001,1.766-1.843,2.839-4.716
				C278.192,119.047,279.625,115.569,281.097,114.009z" transform="matrix(1,0,0,1,0,0)"></path>
        </g>
      </g>
      <g>
        <g>
          <path fill="#2377C8" d="M381.531,123.286c0.091-2.906,1.82-5.008,4.218-5.123c2.364-0.11,4.146,3.043,3.101,6.368
				c-0.507,1.678-2.324,4.058-3.951,6.151c-1.494,1.94-1.891,3.976-1.896,3.971c0.006-0.002,0.295-2.021-0.229-4.437
				C382.206,127.578,381.511,124.783,381.531,123.286z" transform="matrix(1,0,0,1,0,0)"></path>
        </g>
      </g>
      <g>
        <g>
          <path fill="#2377C8" d="M336.463,100.88c3.355-1.569,6.655-0.283,7.145,2.167c0.488,2.494-1.68,4.825-4.707,5.325
				c-1.558,0.247-4.465-0.105-7.271-0.041c-2.574,0.058-4.518,1.143-4.513,1.128c0.012,0.006,1.83-1.137,3.491-3.199
				C332.406,104.014,334.77,101.665,336.463,100.88z" transform="matrix(1,0,0,1,0,0)"></path>
        </g>
      </g>
      <g>
        <g>
          <path fill="#2377C8" d="M338.169,127.486c1.729-4.876,7.424-5.821,8.452-3.108c1.145,2.762,1.013,5.01-0.551,7.139
				c-0.838,1.104-3.247,3.111-4.881,5.771c-1.543,2.403-1.426,4.984-1.442,4.957c0.024-0.024-0.24-2.373-1.14-5.273
				C337.55,133.832,337.296,129.805,338.169,127.486z" transform="matrix(1,0,0,1,0,0)"></path>
        </g>
      </g>
      <g>
        <g>
          <path fill="#7BFD84" d="M398.708,141.9c-1.034-1.903-1.075-4.646,0.781-6.33c1.721-1.621,5.528-0.318,6.511,4.028
				c0.523,2.131-0.456,5.952-2.35,8.215c-1.685,2.098-2.82,3.731-2.786,3.789c-0.054,0.021,1.083-1.98,0.614-4.342
				C400.943,144.646,399.271,142.877,398.708,141.9z" transform="matrix(1,0,0,1,0,0)"></path>
        </g>
      </g>
      <g>
        <g>
          <path fill="#2377C8" d="M410.589,163.085c-0.512-3.102,0.951-5.926,3.56-6.443c2.564-0.505,5.112,2.402,4.678,6.324
				c-0.229,1.97-1.74,5.166-3.53,7.668c-1.625,2.304-2.54,4.302-2.521,4.33c-0.026,0.017,0.824-2.222,0.148-4.791
				C412.202,167.386,410.842,164.675,410.589,163.085z" transform="matrix(1,0,0,1,0,0)"></path>
        </g>
      </g>
      <g>
        <g>
          <path fill="#2377C8" d="M374.199,251.775c4.746-2.582,9.555-1.073,10.633,2.436c1.083,3.559-1.954,7.301-6.371,8.311
				c-2.275,0.535-6.471,0.155-10.373,0.772c-3.712,0.49-5.752,3.319-5.699,3.283c0.023-0.011,1.578-2.673,3.738-6.05
				C368.383,256.738,371.829,253.082,374.199,251.775z" transform="matrix(1,0,0,1,0,0)"></path>
        </g>
      </g>
      <g>
        <g>
          <path fill="#2377C8" d="M395.093,249.23c1.938,0.98,2.862,2.856,2.106,4.521c-0.707,1.574-3.34,1.788-5.247,0.041
				c-0.998-0.856-2.037-2.88-2.909-4.677c-0.779-1.674-1.917-2.693-1.92-2.693c0,0,1.197,0.969,2.956,1.444
				C392.012,248.355,394.08,248.771,395.093,249.23z" transform="matrix(1,0,0,1,0,0)"></path>
        </g>
      </g>
      <g>
        <g>
          <path fill="#7BFD84" d="M399.021,240.18c2.864-0.979,5.775-0.07,6.653,2.35c0.836,2.289-1.469,5.121-5.157,5.337
				c-1.842,0.186-5.031-0.802-7.685-1.827c-2.45-1.089-4.552-1.23-4.565-1.221c-0.016-0.01,2.224,0.021,4.473-1.073
				C395.2,242.391,397.553,240.771,399.021,240.18z" transform="matrix(1,0,0,1,0,0)"></path>
        </g>
      </g>
      <g>
        <g>
          <path fill="#2377C8" d="M368.111,177.938c-0.932-0.885-1.313-2.092-1.143-3.89c0.063-1.717,3.7-2.162,5.396,0.78
				c0.808,1.361,0.894,3.785,0.517,5.669c-0.303,1.754-0.082,3.163-0.075,3.171c-0.002,0.012-0.313-1.458-1.414-2.768
				C370.207,179.425,368.659,178.406,368.111,177.938z" transform="matrix(1,0,0,1,0,0)"></path>
        </g>
      </g>
      <g>
        <g>
          <path fill="#2377C8" d="M385.598,193.266c1.139-3.846,5.457-5.382,7.43-3.203c2.013,2.194,2.445,4.791,0.797,7.138
				c-0.887,1.209-3.355,3.164-5.608,5.114c-2.073,1.768-3.096,3.674-3.089,3.683c-0.014,0.001,0.924-2.024,0.605-4.681
				C385.369,198.445,385,195.148,385.598,193.266z" transform="matrix(1,0,0,1,0,0)"></path>
        </g>
      </g>
      <g>
        <g>
          <path fill="#2377C8" d="M417.509,194.209c1.117-1.813,2.946-2.755,5.113-2.297c2.078,0.396,2.664,4.165-0.046,6.645
				c-1.297,1.252-3.938,2.018-6.112,2.736c-2.036,0.711-3.112,2.328-3.116,2.301c0.032,0.006,0.914-1.548,1.729-3.68
				C416.014,197.575,416.982,195.209,417.509,194.209z" transform="matrix(1,0,0,1,0,0)"></path>
        </g>
      </g>
      <g>
        <g>
          <path fill="#2377C8" d="M360.455,151.224c-1.247-1.517-0.934-3.679,0.328-3.972c1.357-0.34,2.593,0.331,3.234,1.813
				c0.313,0.728,0.557,2.446,0.758,3.944c0.047,1.465,0.466,2.478,0.475,2.489c0.004,0.011-0.523-1.081-1.534-1.883
				C362.454,152.812,361.105,152.021,360.455,151.224z" transform="matrix(1,0,0,1,0,0)"></path>
        </g>
      </g>
      <g>
        <g>
          <path fill="#2377C8" d="M331.556,188.216c-0.324-1.926,0.672-3.526,2.087-3.517c1.416,0.011,2.523,1.52,2.328,3.357
				c-0.099,0.912-0.799,2.565-1.422,4.037c-0.575,1.35-0.562,2.563-0.562,2.563c0,0.003-0.073-1.228-0.735-2.53
				C332.533,190.711,331.726,189.215,331.556,188.216z" transform="matrix(1,0,0,1,0,0)"></path>
        </g>
      </g>
      <g>
        <g>
          <path fill="#2377C8" d="M337.262,174.497c0.61-2.563,3.153-3.661,4.281-2.511c1.168,1.166,1.291,2.783,0.438,4.302
				c-0.416,0.771-1.75,1.973-2.444,3.519c-0.685,1.438-0.027,2.856-0.052,2.832c0.023-0.035-0.678-1.148-1.426-2.785
				C337.186,178.07,336.964,175.771,337.262,174.497z" transform="matrix(1,0,0,1,0,0)"></path>
        </g>
      </g>
      <g>
        <g>
          <path fill="#2377C8" d="M321.02,197.688c-1.195-0.787-1.948-2.23-1.464-3.713c0.438-1.423,2.972-1.771,4.736,0.26
				c0.873,0.99,1.533,3.234,1.333,5.062c-0.177,1.673-0.263,2.905-0.228,2.925c-0.019,0.028-0.056-1.41-1.097-2.481
				C323.146,198.568,321.648,198.091,321.02,197.688z" transform="matrix(1,0,0,1,0,0)"></path>
        </g>
      </g>
      <g>
        <g>
          <path fill="#2377C8" d="M283.405,171.654c-2.238-2.578-1.782-6.215,0.424-6.885c2.218-0.672,4.43,0.478,5.608,2.996
				c0.589,1.262,0.891,3.924,1.735,6.23c0.717,2.218,2.638,3.158,2.62,3.145c-0.01-0.021-1.793-0.701-4.09-1.638
				C287.134,174.574,284.537,172.968,283.405,171.654z" transform="matrix(1,0,0,1,0,0)"></path>
        </g>
      </g>
      <g>
        <g>
          <path fill="#2377C8" d="M262.495,206.033c-0.389-2.274,0.78-4.169,2.44-4.158c1.658,0.02,2.966,1.773,2.741,3.913
				c-0.145,1.081-0.89,2.976-1.532,4.726c-0.601,1.604-0.523,3.043-0.523,3.043s-0.149-1.431-0.994-2.929
				C263.696,208.996,262.669,207.201,262.495,206.033z" transform="matrix(1,0,0,1,0,0)"></path>
        </g>
      </g>
      <g>
        <g>
          <path fill="#2377C8" d="M244.33,210.08c-1.828-2.553-1.225-5.37,0.677-6.145c1.943-0.787,4.168,0.695,5.002,2.992
				c0.454,1.163,0.479,3.504,1.3,5.497c0.738,1.915,2.68,2.502,2.632,2.505c-0.007-0.061-1.688-0.326-3.887-1.072
				C247.598,213.088,245.264,211.334,244.33,210.08z" transform="matrix(1,0,0,1,0,0)"></path>
        </g>
      </g>
      <g>
        <g>
          <path fill="#2377C8" d="M296.511,227.012c-1.221,1.172-2.721,1.129-3.408,0.196c-0.695-0.944-0.063-2.418,1.203-3.093
				c0.64-0.363,1.92-0.545,2.986-1.143c1-0.563,1.299-1.632,1.306-1.604c-0.03,0.006-0.188,0.941-0.424,2.204
				C297.918,224.98,297.111,226.417,296.511,227.012z" transform="matrix(1,0,0,1,0,0)"></path>
        </g>
      </g>
      <g>
        <g>
          <path fill="#2377C8" d="M328.912,233.914c-1.607-0.039-2.999-1.163-2.826-2.492c0.171-1.306,1.703-2.169,3.581-1.594
				c0.93,0.314,2.454,1.338,3.462,2.627c0.934,1.146,1.51,2.066,1.547,2.059c0.008,0.028-0.806-0.967-2.12-0.981
				C331.17,233.486,329.728,233.963,328.912,233.914z" transform="matrix(1,0,0,1,0,0)"></path>
        </g>
      </g>
      <g>
        <g>
          <path fill="#2377C8" d="M302.415,261.957c-4.052,1.271-7.831-1.396-7.937-5.113c-0.104-3.82,2.643-6.719,6.384-6.559
				c1.912,0.134,5.377,1.589,8.67,2.811c3.02,1.081,5.563,0.654,5.559,0.654c-0.003,0-2.484,0.582-4.918,2.736
				C307.521,258.793,304.485,261.354,302.415,261.957z" transform="matrix(1,0,0,1,0,0)"></path>
        </g>
      </g>
      <g>
        <g>
          <path fill="#2377C8" d="M319.282,281.831c-3.063,0.325-5.897-2.692-4.534-4.375c1.337-1.657,2.619-2.548,5.09-2.011
				c1.169,0.271,3.231,1.474,5.344,2.133c1.972,0.727,3.678-0.102,3.649-0.122c-0.002,0.017-1.474,0.901-3.387,1.979
				C323.409,280.746,320.872,281.753,319.282,281.831z" transform="matrix(1,0,0,1,0,0)"></path>
        </g>
      </g>
      <g>
        <g>
          <path fill="#2377C8" d="M263.346,243.877c-1.94,0.995-4.013,0.186-4.424-1.461c-0.417-1.689,0.798-3.303,2.719-3.63
				c0.998-0.144,2.839,0.138,4.595,0.313c1.591,0.108,2.834-0.42,2.833-0.414c-0.005,0-1.181,0.578-2.222,1.862
				C265.693,241.896,264.337,243.4,263.346,243.877z" transform="matrix(1,0,0,1,0,0)"></path>
        </g>
      </g>
      <g>
        <g>
          <path fill="#2377C8" d="M291.917,248.248c-2.432-0.688-3.683-2.789-2.937-4.458c0.763-1.685,3.174-2.065,5.231-0.81
				c1.048,0.668,2.493,2.313,3.928,3.797c1.333,1.301,2.875,1.818,2.865,1.822c-0.002-0.011-1.51-0.429-3.443-0.238
				C295.487,248.506,293.135,248.613,291.917,248.248z" transform="matrix(1,0,0,1,0,0)"></path>
        </g>
      </g>
      <g>
        <g>
          <path fill="#2377C8" d="M307.268,248.309c-0.958-0.621-1.335-1.75-0.764-2.457c0.561-0.692,1.765-0.621,2.608,0.334
				c0.441,0.461,0.893,1.574,1.205,2.557c0.236,0.943,0.643,1.572,0.651,1.572c0,0.012-0.478-0.648-1.276-1.035
				C308.764,248.902,307.779,248.613,307.268,248.309z" transform="matrix(1,0,0,1,0,0)"></path>
        </g>
      </g>
      <g>
        <g>
          <path fill="#2377C8" d="M370.792,225.539c0.294-2.488,2.208-4.152,4.074-3.737c1.868,0.423,2.709,2.835,1.709,5.271
				c-0.519,1.261-2.037,3.013-3.412,4.658c-1.267,1.523-1.731,3.127-1.729,3.125c0-0.002,0.381-1.604,0.031-3.56
				C371.083,229.164,370.648,226.786,370.792,225.539z" transform="matrix(1,0,0,1,0,0)"></path>
        </g>
      </g>
      <g>
        <g>
          <path fill="#2377C8" d="M370.131,190.098c-0.213-1.451,0.571-2.656,1.646-2.652c1.072,0.01,1.885,1.166,1.709,2.574
				c-0.121,0.73-0.622,1.891-1.028,3.012c-0.39,1.033-0.34,1.979-0.34,1.973c0-0.003-0.095-0.913-0.644-1.888
				C370.866,192.052,370.212,190.822,370.131,190.098z" transform="matrix(1,0,0,1,0,0)"></path>
        </g>
      </g>
      <g>
        <g>
          <path fill="#2377C8" d="M395.79,222.244c0.621-1.612,2.313-2.243,3.128-1.475c0.885,0.818,0.867,2.127,0.039,3.238
				c-0.451,0.545-1.536,1.395-2.514,2.262c-0.893,0.801-1.305,1.715-1.305,1.715s0.365-0.934,0.328-2.135
				C395.434,224.542,395.443,223.055,395.79,222.244z" transform="matrix(1,0,0,1,0,0)"></path>
        </g>
      </g>
      <g>
        <g>
          <path fill="#2377C8" d="M407.919,149.758c0.335-1.023,1.354-2.235,3.022-2.506c1.504-0.333,3.211,2.267,1.341,5.045
				c-0.911,1.356-3.128,2.208-4.854,2.557c-1.626,0.376-2.664,1.337-2.67,1.328c0.006,0.008,0.979-0.987,1.741-2.481
				C407.396,152.051,407.816,150.36,407.919,149.758z" transform="matrix(1,0,0,1,0,0)"></path>
        </g>
      </g>
      <g>
        <g>
          <path fill="#7BFD84" d="M370.41,116.293c0.261-3.822,3.736-6.198,6.621-4.922c2.9,1.285,4.228,4.238,2.979,7.172
				c-0.644,1.497-2.848,3.845-4.658,6.25c-1.674,2.205-1.869,4.493-1.875,4.482c0.01-0.008,0.059-2.217-0.99-4.854
				C371.325,121.561,370.271,118.222,370.41,116.293z" transform="matrix(1,0,0,1,0,0)"></path>
        </g>
      </g>
      <g>
        <g>
          <path fill="#2377C8" d="M375.813,137.515c0.195-2.405,2.019-3.851,3.523-3.32c1.576,0.558,2.158,2.509,1.475,4.36
				c-0.388,0.938-1.467,2.476-2.369,4.072c-0.75,1.476-0.823,2.911-0.823,2.905c0.001-0.005-0.002-1.399-0.671-2.991
				C376.299,140.806,375.677,138.731,375.813,137.515z" transform="matrix(1,0,0,1,0,0)"></path>
        </g>
      </g>
      <g>
        <g>
          <path fill="#2377C8" d="M342.695,110.411c1.59-2.267,4.269-2.32,5.06-0.926c0.915,1.533,0.238,3.34-1.13,4.472
				c-0.816,0.523-2.355,1.31-3.855,2.485c-1.123,1.169-1.599,2.644-1.597,2.625c0.011-0.016,0.356-1.359,0.168-3.228
				C341.386,113.903,341.802,111.476,342.695,110.411z" transform="matrix(1,0,0,1,0,0)"></path>
        </g>
      </g>
      <g>
        <g>
          <path fill="#7BFD84" d="M318.902,103.532c1.234-3.681,4.718-4.246,5.808-2.661c1.235,1.674,0.883,3.788-0.011,5.096
				c-0.541,0.652-1.953,2.225-2.883,4.33c-0.862,1.872-0.883,3.636-0.885,3.63c0.001-0.008-0.064-1.729-0.961-3.637
				C318.967,108.285,318.272,105.352,318.902,103.532z" transform="matrix(1,0,0,1,0,0)"></path>
        </g>
      </g>
      <g>
        <g>
          <path fill="#2377C8" d="M294.284,158.274c-2.426-0.14-4.327-1.582-4.615-3.807c-0.295-2.166,2.713-4.078,6.036-2.931
				c1.656,0.554,3.917,2.477,5.569,4.378c1.542,1.738,3.154,2.679,3.167,2.675c0.005,0.012-1.73-0.882-3.976-0.824
				C298.011,157.809,295.547,158.324,294.284,158.274z" transform="matrix(1,0,0,1,0,0)"></path>
        </g>
      </g>
      <g>
        <g>
          <path fill="#2377C8" d="M313.05,163.214c-1.042-1.973-0.502-3.976,1.009-4.625c1.508-0.643,3.342,0.728,3.8,2.85
				c0.217,1.111,0.05,3.018-0.02,4.866c0.048,1.631,0.692,2.942,0.688,2.937c-0.007-0.013-0.675-1.216-2.054-2.313
				C315.1,165.686,313.55,164.208,313.05,163.214z" transform="matrix(1,0,0,1,0,0)"></path>
        </g>
      </g>
      <g>
        <g>
          <path fill="#7BFD84" d="M304.317,135.033c-1.377-4.45,0.405-8.6,3.902-9.426c3.433-0.802,6.928,2.698,7.063,7.59
				c0.082,2.496-1.194,6.717-2.327,10.559c-1.017,3.524-0.611,6.589-0.613,6.585c0-0.002-0.555-3.022-2.609-6.097
				C307.524,140.903,305.04,137.284,304.317,135.033z" transform="matrix(1,0,0,1,0,0)"></path>
        </g>
      </g>
      <g>
        <g>
          <path fill="#2377C8" d="M256.935,173.493c0.241-2.409,2.344-3.666,3.532-2.882c1.35,0.845,1.621,2.463,1.036,3.967
				c-0.398,0.768-1.307,2.097-2.037,3.621c-0.511,1.383-0.369,2.73-0.376,2.719c0.005-0.012-0.192-1.244-0.999-2.666
				C257.376,176.695,256.717,174.691,256.935,173.493z" transform="matrix(1,0,0,1,0,0)"></path>
        </g>
      </g>
      <g>
        <g>
          <path fill="#2377C8" d="M296.953,183.846c-0.471-1.063-0.16-2.104,0.616-2.238c0.781-0.135,1.591,0.492,1.719,1.442
				c0.018,0.505-0.001,1.397,0.03,2.273c0.018,0.805,0.314,1.438,0.312,1.437c0-0.002-0.315-0.596-0.96-1.115
				C297.956,185.086,297.144,184.404,296.953,183.846z" transform="matrix(1,0,0,1,0,0)"></path>
        </g>
      </g>
      <g>
        <g>
          <path fill="#2377C8" d="M303.394,214.585c-2.93-0.642-4.323-3.071-3.421-4.808c0.927-1.771,3.385-2.125,5.434-1.037
				c1.056,0.544,2.6,2.146,4.467,3.16c1.722,0.957,3.524,0.601,3.501,0.627c-0.026-0.027-1.594,0.418-3.595,1.184
				C307.584,214.581,304.862,214.893,303.394,214.585z" transform="matrix(1,0,0,1,0,0)"></path>
        </g>
      </g>
      <g>
        <g>
          <path fill="#7BFD84" d="M276.405,249.843c-0.964,1.649-2.802,3.323-5.631,3.679c-2.68,0.535-5.19-4.885-0.907-9.244
				c1.994-2.129,6.515-3.103,9.853-2.504c3.1,0.457,5.448,0.781,5.484,0.756c0.051,0.006-2.672-0.122-4.869,1.689
				C277.898,246.184,276.805,248.848,276.405,249.843z" transform="matrix(1,0,0,1,0,0)"></path>
        </g>
      </g>
      <g>
        <g>
          <path fill="#2377C8" d="M281.506,254.703c-1.115-3.163,0.573-5.98,2.551-5.762c1.993,0.207,3.337,2.067,3.513,4.355
				c0.098,1.171-0.44,3.328,0.151,5.289c0.561,1.991,2.855,2.073,2.75,2.036c0.01-0.072-1.799,0.349-4.038-0.745
				C283.951,258.77,282.044,256.245,281.506,254.703z" transform="matrix(1,0,0,1,0,0)"></path>
        </g>
      </g>
      <g>
        <g>
          <path fill="#2377C8" d="M250.524,222.447c-0.257,1.238-1.134,2.369-2.426,2.445c-1.225,0.094-2.287-1.791-1.254-3.867
				c0.499-1.027,2.077-2.323,3.616-2.746c1.404-0.396,2.446-0.676,2.448-0.717c0.031,0.014-1.145,0.459-1.72,1.615
				C250.574,220.456,250.649,221.805,250.524,222.447z" transform="matrix(1,0,0,1,0,0)"></path>
        </g>
      </g>
      <g>
        <g>
          <path fill="#2377C8" d="M287.566,224.809c-2.143,0.409-3.896-0.816-3.737-2.205c0.159-1.405,1.665-2.309,3.449-2.179
				c0.908,0.05,2.491,0.69,4.046,0.886c1.458,0.227,2.594-0.554,2.582-0.539c-0.018-0.006-0.965,0.772-2.2,1.771
				C290.376,223.68,288.648,224.585,287.566,224.809z" transform="matrix(1,0,0,1,0,0)"></path>
        </g>
      </g>
      <g>
        <g>
          <path fill="#2377C8" d="M308.013,200.891c0.268-1.752,1.899-2.57,2.613-1.877c0.758,0.707,0.842,1.719,0.406,2.711
				c-0.25,0.515-0.949,1.512-1.528,2.553c-0.536,0.947-0.716,1.836-0.71,1.836c-0.005,0.002,0.134-0.909-0.202-1.936
				C308.219,203.08,307.866,201.748,308.013,200.891z" transform="matrix(1,0,0,1,0,0)"></path>
        </g>
      </g>
      <g>
        <g>
          <path fill="#2377C8" d="M312.453,274.796c-0.365,1.662-2.728,2.522-6.179,2.774c-3.319,0.318-5.8-4.303-2.819-8.086
				c1.412-1.823,4.807-2.989,7.574-3.531c2.581-0.568,3.942-2.133,3.949-2.124c-0.01-0.004-1.224,1.612-1.727,4.233
				C312.636,270.951,312.611,273.832,312.453,274.796z" transform="matrix(1,0,0,1,0,0)"></path>
        </g>
      </g>
      <g>
        <g opacity="0.5">
          <g>
            <path fill="#2377C8" d="M298.463,273.4c-2.011,1.552-4.549,1.263-5.313-0.366c-0.777-1.675,0.31-3.691,2.49-4.573
					c1.12-0.43,3.325-0.626,5.363-0.871c1.864-0.238,3.221-1.05,3.22-1.049c0,0-1.308,0.876-2.339,2.461
					C300.763,270.721,299.497,272.627,298.463,273.4z" transform="matrix(1,0,0,1,0,0)"></path>
          </g>
        </g>
        <g opacity="0.5">
          <g>
            <path fill="#2377C8" d="M341.541,276.475c-1.074,2.047-3.254,3.248-5.241,2.447c-1.935-0.768-2.372-3.947-0.047-6.412
					c1.167-1.21,3.913-2.613,6.499-2.869c2.35-0.252,4.064-0.272,4.086-0.336c0.049,0.021-1.977,0.299-3.129,2.021
					C342.477,273.173,342.105,275.443,341.541,276.475z" transform="matrix(1,0,0,1,0,0)"></path>
          </g>
        </g>
        <g opacity="0.5">
          <g>
            <path fill="#2377C8" d="M369.406,266.639c3.18-0.281,5.297,2.762,3.975,4.063c-1.313,1.369-2.563,1.904-4.279,1.541
					c-0.918-0.211-2.805-1.065-4.762-1.629c-1.777-0.522-3.328-0.372-3.326-0.37c0.002-0.003,1.541-0.229,3.094-1.259
					C365.777,267.861,367.895,266.736,369.406,266.639z" transform="matrix(1,0,0,1,0,0)"></path>
          </g>
        </g>
        <g opacity="0.5">
          <g>
            <path fill="#2377C8" d="M398.936,206.805c-0.107-1.798,1.125-3.24,2.389-2.98c1.302,0.263,2.041,1.662,1.678,3.333
					c-0.195,0.835-1.007,2.26-1.732,3.538c-0.709,1.18-0.862,2.285-0.862,2.287c0,0.006,0.101-1.137-0.329-2.396
					C399.564,209.209,398.98,207.729,398.936,206.805z" transform="matrix(1,0,0,1,0,0)"></path>
          </g>
        </g>
        <g opacity="0.5">
          <g>
            <path fill="#2377C8" d="M347.639,209.751c1-3.21,4.707-4.149,5.588-2.378c0.944,1.791,0.957,3.37-0.129,4.975
					c-0.572,0.815-2.223,2.232-3.344,4.027c-1.076,1.624-0.986,3.384-0.994,3.365c0.016-0.016-0.182-1.614-0.761-3.6
					C347.293,213.99,347.114,211.3,347.639,209.751z" transform="matrix(1,0,0,1,0,0)"></path>
          </g>
        </g>
        <g opacity="0.5">
          <g>
            <path fill="#2377C8" d="M313.356,225.452c-1.336-0.029-2.34-0.806-2.389-1.933c-0.052-1.063,1.371-1.906,2.901-1.442
					c0.787,0.202,1.911,1.051,2.878,1.815c0.88,0.729,1.779,1,1.782,1c0.001,0.002-0.925-0.229-2.027-0.031
					C315.296,225.109,314.042,225.434,313.356,225.452z" transform="matrix(1,0,0,1,0,0)"></path>
          </g>
        </g>
        <g opacity="0.5">
          <g>
            <path fill="#2377C8" d="M345.844,251.609c-0.527-1.018-0.371-2.213,0.512-2.668c0.828-0.433,2.031,0.244,2.336,1.66
					c0.192,0.695-0.032,2.006-0.305,3.065c-0.351,0.99-0.314,1.795-0.313,1.804c0,0.006-0.082-0.859-0.562-1.678
					C346.873,252.913,346.161,252.125,345.844,251.609z" transform="matrix(1,0,0,1,0,0)"></path>
          </g>
        </g>
        <g opacity="0.5">
          <g>
            <path fill="#2377C8" d="M405.501,201.992c0.787-2.03,2.669-2.936,4.065-2.178c1.401,0.764,1.545,2.902,0.285,4.582
					c-0.664,0.854-2.205,1.969-3.613,3.074c-1.229,1.041-1.826,2.312-1.826,2.303c0.004-0.004,0.52-1.256,0.518-2.94
					C404.99,205.042,405.089,203.004,405.501,201.992z" transform="matrix(1,0,0,1,0,0)"></path>
          </g>
        </g>
        <g opacity="0.5">
          <g>
            <path fill="#2377C8" d="M317.94,147.658c0.262-2.811,2.647-4.689,4.364-3.841c1.832,0.885,2.479,3.003,1.599,5.292
					c-0.469,1.132-1.958,3.085-3.274,4.866c-1.302,1.63-1.761,3.231-1.761,3.238c-0.002,0.007,0.391-1.684,0.003-3.625
					C318.363,151.439,317.778,149.107,317.94,147.658z" transform="matrix(1,0,0,1,0,0)"></path>
          </g>
        </g>
        <g opacity="0.5">
          <g>
            <path fill="#2377C8" d="M289.208,233.912c-0.699,0.677-1.592,0.664-1.945,0.145c-0.363-0.541,0.012-1.332,0.738-1.742
					c0.397-0.193,1.105-0.371,1.79-0.653c0.568-0.304,0.908-0.822,0.908-0.813c-0.01,0.002-0.286,0.482-0.462,1.194
					C289.977,232.768,289.574,233.594,289.208,233.912z" transform="matrix(1,0,0,1,0,0)"></path>
          </g>
        </g>
        <g opacity="0.5">
          <g>
            <path fill="#2377C8" d="M258.617,195.684c-0.481-1.82,0.547-3.225,1.621-3.084c1.112,0.139,1.791,1.309,1.791,2.549
					c0.018,0.634-0.411,1.795-0.082,2.869c0.332,1.045,1.552,1.209,1.499,1.227c-0.003-0.078-0.964,0.033-2.22-0.516
					C259.811,198.093,258.861,196.563,258.617,195.684z" transform="matrix(1,0,0,1,0,0)"></path>
          </g>
        </g>
        <g opacity="0.5">
          <g>
            <path fill="#2377C8" d="M291.627,205.157c-1.396-0.748-1.831-2.171-1.156-2.938c0.687-0.777,2.029-0.604,2.997,0.301
					c0.501,0.453,1.107,1.543,1.9,2.354c0.73,0.798,1.759,0.781,1.743,0.781c-0.006-0.012-0.901,0.096-2.075,0.101
					C293.744,205.809,292.334,205.521,291.627,205.157z" transform="matrix(1,0,0,1,0,0)"></path>
          </g>
        </g>
        <g opacity="0.5">
          <g>
            <path fill="#2377C8" d="M247.459,173.343c-1.758-0.95-2.324-2.817-1.421-3.876c0.927-1.084,2.719-0.929,4.001,0.313
					c0.646,0.652,1.465,2.1,2.343,3.408c0.82,1.17,1.908,1.773,1.9,1.776c-0.001-0.008-1.08-0.534-2.556-0.664
					C250.135,174.126,248.339,173.839,247.459,173.343z" transform="matrix(1,0,0,1,0,0)"></path>
          </g>
        </g>
        <g opacity="0.5">
          <g>
            <path fill="#2377C8" d="M404.229,228.585c1.723-2.513,4.576-3.496,6.715-2.086c2.029,1.328,1.854,4.964-0.938,7.308
					c-1.353,1.235-4.446,2.346-7.146,3.164c-2.568,0.654-4.281,1.881-4.286,1.895c-0.013,0.003,1.717-1.379,2.807-3.635
					C402.48,232.659,403.4,229.936,404.229,228.585z" transform="matrix(1,0,0,1,0,0)"></path>
          </g>
        </g>
        <g opacity="0.5">
          <g>
            <path fill="#2377C8" d="M304.015,192.195c-1.361-1.901-1.013-4.016,0.427-4.75c1.461-0.738,3.334,0.39,4.031,2.303
					c0.373,0.97,0.409,2.845,0.877,4.525c0.421,1.576,1.643,2.447,1.617,2.447c0.001-0.027-1.15-0.722-2.74-1.464
					C306.465,194.456,304.716,193.141,304.015,192.195z" transform="matrix(1,0,0,1,0,0)"></path>
          </g>
        </g>
        <g opacity="0.5">
          <g>
            <path fill="#2377C8" d="M416.754,177.236c-0.848-1.957-0.072-4,1.402-4.221c1.523-0.225,2.891,1.021,3.148,2.935
					c0.133,0.965-0.154,2.835-0.394,4.53c-0.274,1.58-0.011,2.838-0.011,2.844s-0.342-1.287-1.325-2.461
					C418.445,179.602,417.191,178.241,416.754,177.236z" transform="matrix(1,0,0,1,0,0)"></path>
          </g>
        </g>
        <g opacity="0.5">
          <g>
            <path fill="#2377C8" d="M392.064,130.742c1.135-1.24,2.539-1.591,4.104-1.012c1.53,0.535,1.375,3.501-0.928,4.903
					c-1.101,0.717-3.166,1.013-4.917,1.219c-1.635,0.208-2.743,1.103-2.745,1.093c0.012,0.005,1.024-0.912,1.942-2.328
					C390.542,133.07,391.496,131.422,392.064,130.742z" transform="matrix(1,0,0,1,0,0)"></path>
          </g>
        </g>
        <g opacity="0.5">
          <g>
            <path fill="#2377C8" d="M294.242,112.669c-0.811-3.682,1.552-6.331,3.672-5.802c2.216,0.53,3.387,2.76,3.259,5.015
					c-0.086,1.171-0.817,3.444-0.74,5.899c0.075,2.234,1.291,3.865,1.261,3.859c0.009-0.034-1.193-1.44-3.082-2.924
					C296.551,117.122,294.63,114.496,294.242,112.669z" transform="matrix(1,0,0,1,0,0)"></path>
          </g>
        </g>
      </g>
    </g>
  </g>
  <g id="yun">
    <g>
      <path fill="none" stroke="#2377C8" stroke-miterlimit="10" d="M667.017,269.166c-1.784,0-3.584,0.505-4.012,2.46
			c-0.164,0.751,0.491,1.653-0.054,2.345c-0.724,0.914-2.433,0.146-3.011,1.51c-0.661,1.564,1.236,3.133-1.659,3.595
			c-1.3,0.206-3.604-0.814-4.208-2.112c-0.935-2.031,2.654-4.755,2.683-6.97c0.058-4.107-4.285-2.397-5.168-5.05
			c-0.56-1.692,1.522-3.224-0.274-5.086c-1.671-1.729-4.325,0.414-5.353-1.862c-0.926-2.054-0.546-4.705-2.393-6.329
			c-1.928-1.689-3.709-0.539-5.854-0.236l-1.718,0.112c-0.433,0.004-0.688,0.019-1.003-0.022c-0.606-0.08-0.995,0.096-1.601-0.338
			c-0.869-0.621-0.229-0.906-0.716-1.65c-0.656-1.008-1.677-2.08-2.911-2.438c-2.011-0.581-1.521,0.78-2.947,1.158
			c-1.07,0.286-3.19-1.017-3.308-2.147c-0.123-1.201,1.707-1.938,1.872-3.205c0.221-1.689-1.092-2-2.007-2.967
			c-1.431-1.509-0.45-1.39-0.531-3.188c-0.306-6.748-10.938-1.112-14.022-3.017c-1.849-1.142-2.866-2.765-5.263-2.242
			c-2.2,0.48-2.11,2.601-4.457,2.271c-2.143-0.3-3.925-1.45-5.852,0.24c-1.848,1.623-1.467,4.276-2.392,6.327
			c-1.027,2.277-3.683,0.134-5.354,1.863c-1.796,1.859,0.286,3.394-0.275,5.084c-0.88,2.653-5.222,0.94-5.167,5.051
			c0.03,2.216,3.618,4.938,2.685,6.972c-0.604,1.297-2.908,2.315-4.207,2.11c-2.897-0.463-0.999-2.028-1.66-3.594
			c-0.578-1.365-2.286-0.596-3.011-1.511c-0.546-0.692,0.108-1.592-0.055-2.343c-0.575-2.633-3.673-2.12-5.759-2.857
			c0.72-1.957-2.45-1.863-3.543-1.548c-1.131,0.324-2.062,1.158-3.231,1.327c-1.101,0.156-1.769-0.45-2.92,0.098
			c-1.883,0.896-2.69,3.459-1.656,5.262c0.522,0.908,2.267,2.095,0.908,3.326c-0.721,0.653-1.711-0.156-2.495,0.133
			c-0.82,0.304-0.713,0.859-1.312,1.313c-1.406,1.071-3.334,1.26-4.124,3.105c-0.497,1.16,0.111,2.348-0.3,3.49
			c-0.354,0.984-1.372,1.576-1.744,2.553c-0.314,0.824-0.302,2.346-0.31,3.238c-0.019,2.004,2.345,3.764,1.703,5.772
			c-0.609,1.909-3.617,1.476-5.109,2.019c-2.043,0.744-4.656,2.971-4.47,5.356c0.091,1.163,1.256,2.172,1.074,3.388
			c-0.176,1.192-1.28,1.53-1.84,2.48c-1.949,3.311,2.769,2.688,2.512,5.309c-0.131,1.325-2.114,2.261-2.432,3.658
			c-0.272,1.195,0.231,2.865,1.049,3.781c0.978,1.094,2.646,1.508,3.851,2.335c1.411,0.972,0.088,1.202,1.608,2.021
			c0,0-10.571,9.407-6.983-0.506c0.287-1.229-0.366-3.057-0.952-4.126c-1.707-3.121-5.044-3.507-8.199-2.147
			c-0.548-1.517-0.048-3.076-0.688-4.686c-0.896-2.249-2.538-5.344-4.854-6.42c-2.366-1.1-6.545-0.52-8.42,1.365
			c-1.501-1.088-2.558-2.34-4.676-1.831c-1.566,0.375-3.033,2.047-3.769,3.399c-0.698,1.289-0.204,3.094-1.619,3.855
			c-0.956,0.517-1.594,0.35-2.146,1.58c-0.419,0.938-0.061,2.013-1.302,1.613c-0.723-0.229-1.496-1.657-2.233-2.076
			c-1.052-0.597-2.028-0.482-3.199-0.542c-0.138-1.906,0.175-3.636-0.522-5.479c-1.076-2.847-3.571-4.564-6.377-5.537
			c-1.411-0.488-4.17,0.135-5.142-1c-0.961-1.123-0.114-3.474-0.405-4.832c-0.627-2.935-2.444-5.363-5.595-5.441
			c-2.08-0.053-4.487,1.352-6.209,0.007c-2.202-1.722-3.561-3.636-6.679-2.242c-1.464,0.656-2.779,2.294-4.043,0.544
			c-1.229-1.708-0.896-3.992-2.465-5.67c-1.551-1.656-3.789-2.41-6.026-2.4c-1.885,0.012-4.603,0.732-6.201-0.678
			c-1.092-0.962-0.256-1.836-0.771-2.933c-0.369-0.779-0.711-0.671-1.269-1.187c-1.122-1.037-2.411-1.726-1.852-3.56
			c0.517-1.688,1.929-1.595,1.127-3.628c-1.03-2.621-3.549-1.902-5.747-2.555c-1.856-0.551-2.265-2.068-3.86-2.801
			c-3.081-1.418-6.061,4.512-8.118,0.143c-1.604-3.411-3.094-6.504-7.683-5.649c-2.442,0.457-3.777,2.149-5.877,2.96
			c-2.211,0.854-3.789,0.344-5.623,2.309c-0.933,0.998-1.826,2.086-1.715,3.52c0.073,0.887,1.086,1.738,0.78,2.646
			c-0.772,2.295-3.498,1.147-4.66,0.338c-1.69-1.178-2.004-2.17-4.377-1.932" style="opacity: 1; stroke-dashoffset: 0; stroke-dasharray: 489.795;"></path>
      <path fill="none" stroke="#2377C8" stroke-miterlimit="10" d="M0,271.611c1.171-0.166,1.703-1.049,2.834-1.371
			c1.092-0.315,4.261-0.408,3.542,1.546c2.085,0.739,5.182,0.228,5.758,2.858c0.166,0.752-0.492,1.65,0.055,2.344
			c0.723,0.916,2.433,0.145,3.01,1.51c0.661,1.566-1.236,3.132,1.659,3.594c1.299,0.205,3.605-0.816,4.208-2.109
			c0.935-2.032-2.653-4.756-2.683-6.972c-0.055-4.11,4.288-2.397,5.167-5.05c0.561-1.693-1.521-3.225,0.274-5.086
			c1.671-1.73,4.328,0.413,5.354-1.861c0.925-2.055,0.544-4.705,2.392-6.33c1.927-1.689,3.708-0.537,5.853-0.238
			c2.345,0.328,2.255-1.789,4.457-2.269c2.396-0.524,3.414,1.099,5.262,2.239c0,0,5.314-6.287,9.85-3.291
			c1.951,1.286,1.98,1.718,3.737,1.971c2.65,0.383,1.37-1.91,1.657-3.386c0.562-2.884,3.307-0.565,4.617-2.638
			c0.706-1.116-0.609-2.396,0.284-3.647c0.719-1.01,3.014-1.591,4.158-1.94c1.511-0.461,3.25-0.569,4.725,0.144
			c2.005,0.972,1.365,2.41,1.575,4.263c3.081,1.625,0.406,2.856,0.079,5.065c-0.572,3.862,6.964,4.458,7.904,0.81
			c0.333-1.298-0.204-3.416,1.043-4.346c0.85-0.632,2.369-0.222,3.353-0.465c1.676-0.412,1.991-1.852,3.925-1.73
			c0.287,0.02,0.704,0.267,1.054,0.289c0.325,0.021,0.777-0.357,1.246-0.313c1.467,0.143,1.556,1.902,3.008,2.029
			c1.864,0.162,4.057-1,5.279,1.332c0.44,0.838-0.068,1.885,0.485,2.584c0.512,0.648,1.757,0.553,2.426,0.994
			c0.957,0.631,2.313,2.27,1.976,3.521c-0.275,1.02-1.483,1.316-1.357,2.604c0.142,1.457,1.4,1.229,2.144,2.135
			c1.246,1.521-0.583,2.515-1.169,3.648c-0.819,1.583,0.705,1.877,1.182,3.348c0.428,1.324-0.081,2.971-1.193,3.808
			c-1.76,1.328-5.84,0.547-6.543,3.188c-0.222,0.832,0.457,1.535,0.4,2.347c-0.056,0.81-0.781,1.372-0.879,2.155
			c-0.294,2.354,1.842,1.806,3.257,1.34c1.817-0.594,2.083-0.164,3.316,1.074c1.516,1.521,2.011,0.633,3.759,0.104
			c1.489-0.45,3.226,0.211,4.417,1.171c0.963,0.773,1.957,2.174,1.949,3.45c-0.008,1.371-1.628,2.791-0.424,4.006
			c0.559,0.563,1.651,0.319,2.19,0.912c0.557,0.612,0.184,1.469,0.563,2.153c0.779,1.412,3.027,1.596,4.125,0.49
			c1.845-1.854-0.521-3.846-0.733-5.715c-0.221-1.959,1.422-2.113,2.504-3.324c0.922-1.035,0.934-2.932,2.179-3.666
			c1.573-0.932,3.023,0.323,4.497,0.75c1.765,0.512,5.93-0.012,6.56-2.379c0.389-1.52-1.449-1.678-1.712-3.037
			c-0.586-3.024,3.038-5.428,5.516-5.875c2.069-0.375,2.21-0.597,3.624-1.875c1.311-1.183,3.049-2.028,4.898-1.385
			c1.359,0.473,1.92,2.022,3.393,2.167c3.956,0.39,7.239-4.573,11.188-1.821c1.377,0.961,2.269,1.271,3.82,1.918
			c1.971,0.819,2.464,1.859,1.889,3.842c-0.54,1.865-0.824,1.717,0.025,3.604c0.924,2.051,0.325,1.691-1.043,3.404
			c-0.942,1.184-1.461,2.939,0.146,4.136c1.923,1.435,2.858-0.882,4.224-1.772c1.607-1.047,4.802-0.639,5.911,1.223
			c0.531,0.896,1.209,0.945,1.794,1.848c0.504,0.775,0.15,1.995,0.9,2.674c1.604,1.448,3.91-0.406,5.648,0.332
			c1.774,0.754,1.334,2.605,2.639,3.715c1.184,1.004,2.708,1.697,2.806,3.397c0.099,1.709-1.447,3.542-2.133,4.961
			c-1.721,3.563,2.082,8.438-0.743,11.812" style="opacity: 1; stroke-dashoffset: 0; stroke-dasharray: 379.551;"></path>
    </g>
    <path fill="none" stroke="#2377C8" stroke-miterlimit="10" d="M153.488,267.791c1.048-2.475,5.042-1.123,6.827-2.68
		c1.696-1.48,1.434-4.883,3.735-5.819c4.239-1.726,4.911-0.375,7.589,2.278c3.431,3.402,4.196-3.191,7.575-2.916
		c1.751,0.141,2.657,1.426,4.589,1.307c2.289-0.141,4.406-1.676,6.275,0.432c1.451,1.635,0.091,2.029,0.185,3.791
		c0.102,1.916,1.549,2.121,2.96,2.711c0.7,0.293,0.983,0.073,1.597,0.678c0.861,0.854,0.376,1.964,1.73,2.49
		c1.986,0.776,4.291-0.834,6.06-1.488c2.097-0.778,4.458-0.838,6.481,0.188c2.048,1.036,2.517,3.299,4.261,4.481
		c1.784,1.21,2.46-0.78,3.611-1.897c2.449-2.379,4.382-1.044,7.041-0.183c2.08,0.673,3.858-1.472,5.83-2.136
		c2.987-1.006,5.528,0.652,7.124,3.191c0.739,1.178,0.748,3.678,2.036,4.403c1.302,0.733,3.679-0.802,5.173-0.825
		c2.97-0.048,5.902,0.708,7.889,3.018c1.288,1.494,1.587,3.225,2.371,4.97c1.12-0.349,2-0.788,3.192-0.589
		c0.834,0.138,2.052,1.215,2.809,1.184c1.303-0.052,0.599-0.939,0.672-1.964c0.097-1.347,0.751-1.406,1.474-2.22
		c1.066-1.2-0.016-2.727,0.198-4.176c0.227-1.522,1.031-3.598,2.375-4.488c1.815-1.202,3.237-0.389,5.02,0.117
		c1.116-2.414,4.839-4.393,7.441-4.17c2.544,0.217,2.513,3.156,4.125,4.961c1.152,1.291,1.337,3.791,2.37,5.029
		c2.013,3.807,3.808-1.438,7.545-0.576c1.186,0.275,2.983,2.344,3.135,3.596c0.029,10.543,11.88,8.834,11.88,8.834
		s6.467-5.172,13.364-2.586s15.087-3.16,16.956-1.295c1.867,1.869,8.479-1.578,8.479-1.578" style="opacity: 1; stroke-dashoffset: 0; stroke-dasharray: 247.693;"></path>
    <path fill="none" stroke="#2377C8" stroke-miterlimit="10" d="M355.451,283.479c1.398-2.293,5.154-0.379,7.146-1.66
		c1.894-1.217,2.129-4.62,4.543-5.213c4.442-1.09,4.912,0.343,7.176,3.356c2.901,3.863,4.615-2.548,7.918-1.785
		c1.714,0.396,2.42,1.802,4.352,1.962c2.284,0.192,4.604-1.021,6.146,1.338c1.197,1.828-0.205,2.021-0.367,3.778
		c-0.178,1.911,1.225,2.322,2.533,3.114c0.649,0.389,0.963,0.214,1.481,0.9c0.729,0.972,0.086,1.996,1.349,2.717
		c1.854,1.058,4.703,0.537,6.213-0.594c3.18-2.389,1.869-9.758,12.347-9.758c2.295,0,6.16,2.516,7.712,3.938
		c1.593,1.458,2.55-0.411,3.851-1.351c2.77-1.998,4.488-0.396,6.992,0.842c1.959,0.969,4.03-0.896,6.077-1.267
		c3.103-0.56,9.253-0.812,10.463,1.931c0.561,1.274,7.488-1.051,8.656-0.146c0,0,9.281,0.726,10.945,5.498" style="opacity: 1; stroke-dashoffset: 0; stroke-dasharray: 141.563;"></path>
    <g>
      <path fill="none" stroke="#4DD7D2" stroke-linejoin="round" stroke-miterlimit="10" d="M0,222.018
			c1.358,0,1.945,0.769,2.629,1.295c0.681,0.523,0.93,1.584,1.683,2c1.594,0.886,4.315-0.037,4.458-1.832
			c0.136-1.711-1.039-1.994,0.482-3.438c1.098-1.044,1.728-0.692,2.321-2.253c1.279-3.366,0.633-10.191,6.106-10.094
			c1.56,0.029,0.786-1.594,1.528-2.385c0.975-1.043-0.094-2.359,0.508-3.465c0.633-1.166,2.096-1.068,3.2-1.396l5.709-1.261
			c0.431-0.315,1.453-0.676,1.918-1.061c1.822-1.502,2.793-1.006,4.776-0.359c1.26,0.408,3.463,0.846,3.307-1.106
			c-0.147-1.831-3.137-2.122-1.295-4.321c0.76-0.906,2.895-1.533,3.98-2c0.642-2.98-3.554-2.154-4.896-3.685
			c-2.234-2.55,0.521-2.72,1.372-4.281c0.885-1.628-1.584-2.668-0.835-4.604c0.913-2.364,3.775-1.401,4.99-2.994
			c0.508-0.666,0.012-1.764,0.741-2.408c1.267-1.125,3.1,0.289,4.549-0.146c1.759-0.526,1.084-1.234,0.996-2.535
			c-0.109-1.604-0.31-1.654,0.696-2.918c2.031-2.549,4.757-2.983,7.837-2.994c1.25-0.006,2.814,0.223,3.985-0.303
			c1.334-0.601,1.938-2.073,3.484-2.374c2.014-0.394,4.821-0.537,6.797-0.009c0.771,0.205,3.212,1.207,3.571,1.864
			c0.694,1.271-0.882,1.791-0.676,3.032c0.443,2.666,3.303,0.814,4.667,0.656c2.384-0.278,2.033,0.854,2.625,2.41
			c0.778,2.047,2.344,1.831,4.123,3.071c1.364,0.953,3.446,1.786,3.599,3.683c0.083,1.03-1.201,2.488-0.572,3.43
			c1.196,1.785,5.445-0.079,7.202,2.307c1.025,1.391,0.163,2.084,0.395,3.475c0.234,1.407,1.465,1.703,1.992,2.914
			c0.707,1.621-0.264,1.813-0.931,3.123c-0.661,1.303-0.454,1.603-0.327,3.063c0.321,3.672-2.021,2.117-4.208,3.314
			c-1.61,0.881-2.935,3.014-2.305,4.854c0.907,2.653,3.017,1.05,5.023,0.858c1.885-0.178,1.544,0.44,2.666,1.361
			c1.637,1.346,4.415-0.146,5.305,2.579c0.388,1.188-0.382,2.465,0.209,3.582c0.517,0.978,1.79,1.126,2.246,2.22
			c1.25,2.992-2.539,3.51-3.085,5.752c-0.492,2.02,0.714,1.816,2.106,1.545c1.325-0.26,2.997-0.67,4.206,0.248
			c1.165,0.887,0.958,3.188,2.779,3.161c1.221-0.018,2.453-1.87,3.716-2.331c2.017-0.738,4.162-0.574,6.059,0.5
			c2.16,1.225,1.466,3.377,3.728,4.481c2.45,1.196,3.824,2.233,2.785,5.146c-0.313,0.875-0.602,2.105-0.963,2.945
			c-0.517,1.202-1.313,1.2-2.054,2.16c-2.055,2.661,2.44,2.275,2.656,4.255c0.134,1.226-1.66,2.085-1.293,3.538
			c0.233,0.924,1.093,0.855,1.427,1.484c0.348,0.653,0.134,1.463,0.369,2.164c0.53,1.582,1.529,2.211,3.132,2.666
			c0.987,0.28,2.382,0.512,3.31-0.076c1.151-0.729,0.646-1.383,1.163-2.365c1.635-3.12,4.051-0.001,5.777-1.895
			c1.628-1.785-0.257-4.658-0.57-6.662c-0.428-2.75,0.172-3.516,2.12-5.383c1.952-1.869,0.082-2.787,0.498-4.981
			c0.444-2.345,2.689-1.946,4.336-2.735c2.417-1.154,1.153-3.105,2.564-4.744c1.673-1.943,4.177-0.85,6.334-1.214
			c2.427-0.407,3.634-2.632,5.886-3.276c3.133-0.896,4.665,1.588,7.259,2.301c3.216,0.886,4.093,1.421,4.877,4.709
			c0.338,1.422,0.08,1.179,1.317,2.063c1.143,0.816,2.153,0.717,2.051,2.432c-0.083,1.398-1.417,2.289-1.583,3.582
			c-0.201,1.569,1.212,2.006,1.62,3.297c0.335,1.063-0.686,2.785,1.275,2.976c1.509,0.146,1.001-1.21,2.087-1.869
			c3.325-2.022,2.709,5.087,6.179,4.025c1.66-0.507,1.569-2.894,2.601-4.022c1.975-2.16,7.356-3.021,9.445-0.678
			c0.746,0.837,0.016,1.531,1.578,1.84c1.016,0.201,2.015-0.619,3.021-0.676c1.194-0.066,3.201,0.377,3.853,1.482
			c0.571,0.97-0.182,2.069,0.833,2.893c0.949,0.77,2.721,0.384,3.47,1.254c1.218,1.415-0.621,3.652,0.435,5.172
			c1.051,1.512,3.93,1.689,2.018,4.146c-1.028,1.32-2.964,1.209-2.628,3.463c0.089,0.595,0.58,1.313,1.189,1.979
			c-0.086-0.84-0.116-1.695,0.642-2.543c2.426-2.718,5.585-1.689,8.444-3.166c1.348-3.322,5.421-3.945,8.605-3.068
			c3.232,0.894,1.285,2.994,3.149,4.812c0.613,0.597,1.667,0.581,2.351,1.106c0.681,0.527,0.93,1.584,1.683,2
			c1.593,0.886,4.315-0.036,4.458-1.83c0.135-1.713-1.039-1.995,0.482-3.439c1.098-1.043,1.729-0.691,2.321-2.255
			c1.28-3.364,0.634-10.19,6.107-10.09c1.559,0.028,0.785-1.595,1.527-2.386c0.975-1.043-0.094-2.359,0.508-3.467
			c0.634-1.166,2.096-1.066,3.2-1.394" style="opacity: 1; stroke-dashoffset: 0; stroke-dasharray: 503.558;"></path>
      <path fill="none" stroke="#4DD7D2" stroke-linejoin="round" stroke-miterlimit="10" d="M667.018,204.17
			c-1.075,0-2.133,0.846-3.842,0.881c-4.015,0.084-10.91-3.15-15.293-2.361c-4.384,0.791-9.628,0.433-10.778-1.147
			c-1.147-1.58-10.006,1.38-10.031,1.386c-3.979,0.572-2.779-2.078-2.394-4.498c0.227-1.422,0.274-1.813-0.55-2.931
			c-0.364-0.496-1.308-1.933-1.762-2.272c-0.257-0.19-0.577-0.291-0.923-0.361c-0.798-0.164-1.725-0.164-2.282-0.733
			c-0.688-0.702-0.218-1.467-0.86-2.157c-2.428-2.606-5.913,1.242-6.876,3.281c-0.594,1.258-0.369,2.217-2.052,1.844
			c-1.53-0.338-1.922-2.332-3.031-3.123c-1.491-1.063-4.396-0.496-5.94,0.279c-2.032,1.02-1.397,2.465-2.012,4.232
			c-1.041,3.005-8.077,2.305-6.77,6.492c0.598,1.91,2.507,2.951,1.261,5.199c-1.434,2.586-2.856,0.041-4.744,1.104
			c-2.063,1.165,0.097,3.55-2.883,4.106c-1.941,0.365-2.344-1.192-3.708-2.035c-1.63-1.008-3.707-1.166-3.549-3.885
			c0.127-2.188,1.447-1.408,2.862-2.436c1.851-1.342,0.661-2.313-0.153-3.702c-1.262-2.151,0.184-1.291,1.368-3.026
			c2.1-3.074-1.991-3.627-3.411-5.302c-1.652-1.948,0.238-4.706-1.227-6.614c-1.795-2.334-4.817-2.01-7.264-1.396
			c-3.205,0.806-2.834-1.653-3.865-3.636c-1.07-2.055-3.198-2.067-5.183-1.531c-2.565,0.691-3.467-0.107-5.916-0.25
			c-2.863-0.168-7.827,2.518-7.183,5.665c0.569,2.78,0.303,1.669-2.176,2.437c-4.594,1.422,2.457,6-0.989,8.569
			c-2.214,1.649-3.8-1.354-5.985-0.997c-1.699,0.275-1.43,2.523-3.429,2.344c-2.481-0.229-1.399-2.277-2.611-3.604
			c-0.962-1.052-4.095-2.011-5.498-2.021c-2.289-0.019-4.578,0.756-5.14,3.023c-0.197,0.799,0.063,1.553-0.258,2.354
			c-0.3,0.733-1.15,1.105-1.299,1.965c-0.239,1.406,1.665,3.367-0.536,4.261c-1.114,0.452-1.542-0.448-2.499-0.492
			c-1.146-0.054-1.342,0.278-2.361,0.812c-2.007,1.049-3.512,1.834-3.472,4.435c0.039,2.694,3.995,5.789,2.925,8.144
			c-1.399,3.071-4.883,1.305-5.949-0.697c-1.041-1.959-3.418-2.877-5.197-0.803c-0.655,0.764-0.602,1.866-1.332,2.612
			c-0.77,0.786-2.041,0.858-2.823,1.651c-2.386,2.406-0.153,3.824,0.761,6.016c1.167,2.799-2.919,2.332-2.088,4.88
			c0.625,1.923,3.166,2.95,0.695,5.152c-2.935,2.614-3.988-0.739-6.429-1.157c-2.33-0.398-3.284,4.352-5.687,2.045
			c-1.521-1.459,0.706-3.443-0.617-4.938c-1.104-1.244-2.154-0.83-3.21-0.25c0.45-0.586,0.684-1.207,0.37-2.287
			c-0.351-1.206-1.215-2.174-1.568-3.449c-1.239-4.49-3.55-1.326-6.541-3.25c-1.381-0.887-1.632-2.503-3.39-2.965
			c-4.76-1.245-8.303,7.287-12.594,4.658c-2.389-1.463-1.014-2.097-0.627-3.801c0.429-1.869-1.512-1.703-1.587-3.301
			c-0.105-2.292,3.947-2.751,1.526-5.568c-1.228-1.43-1.774-0.619-1.626-2.48c0.125-1.544,0.981-1.827-0.591-3.413
			c-1.477-1.489-4.043-1.06-5.714-2.16c-1.923-1.267-2.416-3.989-4.471-5.3c-1.612-1.029-3.133-0.874-4.813-0.288
			c-0.832,0.292-1.839,1.614-2.607,1.929c-2.495,1.018-4.059-0.389-5.799-1.389c-2.657-1.527-3.545,3.902-5.927,5.766
			c-2.151,1.685-4.358,3.619-7.248,3.916" style="opacity: 1; stroke-dashoffset: 0; stroke-dasharray: 421.315;"></path>
    </g>
  </g>
  <g id="tudi">
    <path fill="#2377C8" d="M48.453,323.37c40.521-31.468,118.976-36.642,170.703-25.433c51.728,11.209,52.591,18.535,140.959,5.172
		c88.369-13.361,180.188-23.276,247.862,19.828L48.453,323.37z" transform="matrix(1,0,0,1,0,0)"></path>
    <path opacity="0.7" fill="#2377C8" enable-background="new    " d="M147.234,322.583l5.089-5.385
		c20.692-15.519,75.868-32.763,119.837-19.83c43.97,12.933,94.404,16.813,129.32,6.036c34.918-10.777,66.386-30.605,115.956-18.969
		c34.831,8.18,50.937,27.646,57.434,38.146L147.234,322.583L147.234,322.583z" transform="matrix(1,0,0,1,0,0)"></path>
    <path fill="#7BFD84" d="M102.318,323c33.455-16.32,98.23-18.502,140.939-12.688c42.708,5.812,53.296,11.402,126.257,4.471
		c72.961-6.927,138.895-14.361,194.771,7.994L102.318,323z" transform="matrix(1,0,0,1,0,0)"></path>
  </g>
<desc>Created with Snap</desc><defs></defs></svg>