<svg id="z01" xmlns="http://www.w3.org/2000/svg" xmlns:xlink="http://www.w3.org/1999/xlink" viewBox="0 0 831.07 193.86"><defs><style>.cls-1{fill:#468ccb;}.cls-2{fill:#1d2088;}.cls-3{fill:#1861ae;}.cls-4{clip-path:url(#clip-path);}.cls-5{fill:#fff;}</style><clipPath id="clip-path" transform="translate(-5.86 -202.71)"><ellipse class="cls-1" cx="101.14" cy="299.64" rx="95.27" ry="96.93"/></clipPath></defs><title>2016Z01_logo</title><g id="css4"><path class="cls-2" d="M305.91,240.47H262.18V215.56h43.73v24.91Zm0.55,60.89a16.51,16.51,0,0,0,5,10.52q8.3,8.3,31.55,8.3,8.3-.55,26-1.66-18.27,1.66,31.55-2.21V344H323.63q-19.92,0-33.21-13.28L272.7,344l-10-37.09,17.72-16.61v-15.5H262.18V248.22h44.28v53.14Zm15.5,8.3q25.45-.55,29.34-10.52A22.94,22.94,0,0,0,353,292q-3.88,2.78-6.64,5-5.54,3.32-11.07,6.09l-23.8-17.71q19.37-5,24.91-7.75a127.12,127.12,0,0,0,14.39-10,24.3,24.3,0,0,1-1.66-2.77q-6.64,5-11.07,7.75a93.15,93.15,0,0,1-17.72,7.2l-8.85-14.95-1.66-3.32a94.78,94.78,0,0,0,21-6.09q4.43-2.21,9.41-5l-1.66-2.21A132,132,0,0,1,316.43,256l-10-17.71q15.49-3.32,24.91-7.75H313.66V205.6h83.58v24.91h-15.5l16.61,17.71q-6.09,7.2-11.62,12.73-3.32,3.32-7.75,7.2,15.49,11.08,21.59,16.05l-11.63,24.36q-6.64-5.53-14.39-11.07Q370.67,321.85,343,322.4Zm43.73-79.16q-4.44,3.32-8.3,6.64a62.09,62.09,0,0,1,7.75,9.41,47.1,47.1,0,0,0,6.09-6.09q3.32-3.32,9.41-10H365.69Z" transform="translate(-5.86 -202.71)"/><path class="cls-2" d="M403.89,332.36q11.63-23.79,17.72-54.25l22.69,11.63-12.18,52Zm8.86-89.67,39.3,10-8.86,27.68-35.43-6.64Zm112.92,67.53a88.9,88.9,0,0,0,16.61,7.19l-14.95,24.36q-21-8.86-31.55-22.7-9.42-11.62-14.95-34.87H477v24.36q4.43-1.66,9.41-3.32l7.75,22.14a189.2,189.2,0,0,0-18.27,8.3,52.74,52.74,0,0,0-5.54,3.32,55,55,0,0,0-6.64,3.32L453.15,334V217.22l-5,27.12-39.3-7.2,5-30.45,39.3,9.41,24.35,0.55v-9.41h27.13v9.41h29.89V284.2h-8.3l11.62,10Q530.64,303.58,525.67,310.22ZM477,242.13h33.21V237.7H477v4.43Zm33.21,20.48v-5H477v5.54ZM508.51,292q3.87-4.43,6.64-7.75h-10Z" transform="translate(-5.86 -202.71)"/><path class="cls-2" d="M545.59,238.81V215.56h11.07l1.66-8.86H576l-1.11,8.86h30.45v23.25H571.06l-3.32,22.7h4.43V244.35h21v17.16h10v23.25h-10v6.09l11.63-1.11,1.66,20.48a93.89,93.89,0,0,0,11.07-14.39q6.64-10.51,6.64-26v-5.54a135.08,135.08,0,0,1-10,11.07l-16.61-24.91q6.09-3.87,14.95-16.05,6.64-9.41,12.18-28.78h24.91a114.24,114.24,0,0,1-3.32,16.05H680.1V246q-2.78,18.83-14.95,37.09l-14.95-8.86q4.43,17.16,10.52,26t22.7,21l-16.61,22.14Q649.09,329.59,641.36,318a28,28,0,0,0-1.66-2.77q-8.3,14.94-24.91,28.78l-16.06-26,3.32-3.32-8.86,1.11v27.12h-21V318l-23.8,2.21L545,295.27l27.12-2.21v-8.3H545.59l7.75-45.94h-7.75Zm91.34,7.2-0.55.55q3.32-5-3.88,6.09h17.71v3.87A52.82,52.82,0,0,0,654.64,246H636.93Z" transform="translate(-5.86 -202.71)"/><path class="cls-2" d="M737.12,211.13q-3.32,12.18-6.64,22.14v109H701.14V284.2l-3.32,3.87-7.75-35.43q14.39-20.47,23.8-48.71ZM736,305.79V275.9h34.32V257.63H758.71a90.32,90.32,0,0,1-7.19,18.27l-21-18.82q8.3-15.49,12.18-43.73H765.9l-1.66,14.94h6.09V205h24.91v23.25H819.6v29.34H795.24V275.9h27.68v29.89H795.24v36.53H770.33V305.79H736Z" transform="translate(-5.86 -202.71)"/></g><g id="css3"><path class="cls-3" d="M293.9,381.48q-1.1,1.37-1.8,2.4a29.39,29.39,0,0,1-5.63-3.46v1.83h-8v3.46h13v2.17H263v-2.17h13v-3.46h-8.06v-1.81a37.37,37.37,0,0,1-5.53,3.85,21.73,21.73,0,0,0-1.73-2.1,31.78,31.78,0,0,0,8.88-6.33h-8.51v-2.17h6.63V362.52h-5.6v-2.16h5.6v-3.6h2.5v3.6h14.29v-3.6H287v3.6h5.6v2.16H287v11.16h6.53v2.17h-8.76A24.09,24.09,0,0,0,293.9,381.48ZM276,376.91h2.5v3.23h7.63a30,30,0,0,1-4.35-4.3h-9.18a43.73,43.73,0,0,1-4.33,4.3H276v-3.23Zm-5.83-12.06h14.29v-2.33H270.18v2.33Zm0,4.4h14.29v-2.33H270.18v2.33Zm0,4.43h14.29v-2.36H270.18v2.36Z" transform="translate(-5.86 -202.71)"/><path class="cls-3" d="M294.44,375.68a45.52,45.52,0,0,0,5.43-13.76h-4.33v-2.2h11.83v2.2h-5.28a59.1,59.1,0,0,1-2.1,7.33h6.08v17h-2.2V384H300.2v3.16H298V374q-0.88,1.83-1.9,3.51A15.35,15.35,0,0,0,294.44,375.68Zm9.43-4.3H300.2v10.49h3.67V371.38Zm19.79,2v-1.57h-4.83v13.39h5.43v-9.6h2.47v13.49h-2.47v-1.5H308.53v-12H311v9.6h5.36V371.78h-7.23V360.56h2.47v8.83h4.77V357.09h2.47v12.29h4.83v-8.79h2.47v12.76h-2.47Z" transform="translate(-5.86 -202.71)"/><path class="cls-3" d="M332.48,372.52h4.06v-6.73h2.33v6.73h4.56v2.2h-4.56v5q2.79-.32,5.43-0.65c-0.11.84-.19,1.62-0.23,2.33q-2.47.27-5.2,0.6v7.53h-2.33v-7.26l-7.19.93-0.3-2.5q3.87-.37,7.5-0.75v-5.28H330v-2.1q1.85-4.7,3.13-8.5h-3.53v-2.2h4.25q0.93-3,1.45-5.33l2.67,0.53q-0.78,2.43-1.58,4.8h6.95v2.2h-7.7Q334.1,368.45,332.48,372.52Zm17.69-6.33h2.6q0,3.46-.14,6.4,2.62,11.39,9.86,14.69l-2.1,2.3q-6.07-3.36-8.68-12-1.78,7.55-9.58,12.21c-0.51-.73-1.08-1.47-1.7-2.2q9.1-5,9.63-14.86Q350.17,370.68,350.17,366.19Zm-8.33,3.67a49.85,49.85,0,0,0,6.09-13.26l2.63,0.7q-0.92,2.6-1.9,4.93h13.09v2.23l-3.46,6.43-2.6-.57,3-5.8h-11a59.32,59.32,0,0,1-3.57,6.73Q343.14,370.62,341.84,369.85Z" transform="translate(-5.86 -202.71)"/><path class="cls-3" d="M362.93,373.52a57.89,57.89,0,0,0,7.4-16.46l2.73,0.8q-1.23,3.88-2.67,7.28v24.4h-2.63V370.63a49.5,49.5,0,0,1-3.63,5.78A28.82,28.82,0,0,0,362.93,373.52Zm10,2h11.56v-8.43h-6.34a45.07,45.07,0,0,1-3,6.4,16.24,16.24,0,0,0-2.2-1.76,44,44,0,0,0,4.66-12.43l2.7,0.77q-0.65,2.48-1.4,4.7h5.53V357h2.67v7.73h8v2.33h-8v8.43h9.06v2.33h-9.06v11.66h-2.67V377.85H373v-2.33Z" transform="translate(-5.86 -202.71)"/><path class="cls-3" d="M397.25,377.68h24.69v2.53H397.25v-2.53Zm5.63-5.2V370l1.33-13.16H407l-0.52,5.3h23.64v2.53H406.22L405.71,370h22q-0.4,7-.9,13-0.47,3.53-2,4.77t-5,1.2q-3.28,0-7.58-.13-0.2-1.13-.57-2.9,5.07,0.37,7.56.4,4.46,0.3,4.86-3.5,0.44-4.43.73-10.33H402.87Z" transform="translate(-5.86 -202.71)"/><path class="cls-3" d="M431.46,385.11h15.46v-8.5H435.12V374h11.79v-7.7h-8.79a39.83,39.83,0,0,1-5.1,7.23,18.53,18.53,0,0,0-1.8-2.33,38.77,38.77,0,0,0,7.43-12.86l2.73,0.73q-0.88,2.43-2,4.66h7.48v-7.06h2.87v7.06h12.73v2.57H449.78V374h11.79v2.57H449.78v8.5h14.53v2.5H431.46v-2.5Z" transform="translate(-5.86 -202.71)"/><path class="cls-3" d="M468.87,370.22h15.76q2.25-3.31,4-6.6l2.57,1.63q-1.76,2.48-3.7,5h9.86v2.33H471.57v2.33a31.91,31.91,0,0,1-.9,8.79,15.24,15.24,0,0,1-3.53,6.06q-0.87-1.07-1.8-2.26a11.8,11.8,0,0,0,2.77-4.93,30.17,30.17,0,0,0,.76-7.66v-4.66Zm-2.73-9.53h15.21q-0.73-1.37-1.61-2.8l2.47-1.23q1.08,1.77,2.21,4h13.84v2.36H466.14v-2.36Zm7,4.26,2.2-1.47q2.07,2.6,3.67,4.93l-2.36,1.63A55.11,55.11,0,0,0,473.1,365Z" transform="translate(-5.86 -202.71)"/><path class="cls-3" d="M501.15,364.32h10.8q0.1-3.67.13-7.46H515q-0.07,3.53-.17,7.46H530.1q-0.4,13-.77,18.42-0.43,5.73-6.13,5.8-2.73,0-6.6-.13c-0.09-.87-0.26-1.92-0.5-3.17h0.1q4.33,0.4,6.73.37,3.23-.07,3.57-3.56,0.4-6,.6-15H514.75q-0.3,8.68-2.77,13.06-2.63,4.86-10.26,9.36-0.93-1.2-2-2.53,7.23-4.06,9.49-8.19,2.35-3.75,2.63-11.69h-10.7v-2.73Z" transform="translate(-5.86 -202.71)"/><path class="cls-3" d="M534,374.88h14.76V361H535.53v-2.57H565V361H551.59v13.93h14.86v2.56H551.59v12.26h-2.8V377.45H534v-2.56Zm3.2-10.26,2.1-1.47a87.46,87.46,0,0,1,6.43,8.43l-2.36,1.76A93.56,93.56,0,0,0,537.23,364.62Zm17,6.93a54.48,54.48,0,0,0,6.6-8.53l2.5,1.6a93.76,93.76,0,0,1-7,8.66Z" transform="translate(-5.86 -202.71)"/><path class="cls-3" d="M591.3,361.19q5.23,4.86,9.9,10l-2.36,2q-1.33-1.56-2.7-3.08-15,.63-22.85,1.08a22.49,22.49,0,0,0-3.53.53l-1.1-2.87a9.69,9.69,0,0,0,2.76-1.57,66.58,66.58,0,0,0,10.43-10.76l2.5,1.53a88.88,88.88,0,0,1-10.43,10.43q10.21-.32,20.09-0.73-2.28-2.48-4.63-4.83Zm4.9,13.22v15.13h-2.73v-2.2H575.15v2.2h-2.73V374.41H596.2Zm-2.73,2.47H575.15v8.06h18.32v-8.06Z" transform="translate(-5.86 -202.71)"/><path class="cls-3" d="M604.23,358.72h9.39v27q0,3.33-3.1,3.33-1.7,0-3.16-.1-0.14-1-.4-2.37a19.27,19.27,0,0,0,2.93.27,1.21,1.21,0,0,0,1.37-1.37v-7.66H606.6q0.1,7.66-2.77,11.69a11.2,11.2,0,0,0-1.83-1.87q2.23-3.43,2.23-9.73V358.72Zm7,2.17H606.6v6.4h4.66v-6.4Zm-4.66,14.89h4.66v-6.43H606.6v6.43Zm9.79-16.92h16.46q-0.17,2.7-.27,4.26-0.27,5.16-5.26,5.06l-4.3-.13q-0.2-1.3-.43-2.63,2.47,0.3,4.43.37a2.66,2.66,0,0,0,3.1-2.73q0.1-.87.17-1.9H618.92v9.6H633v2a24.35,24.35,0,0,1-4.88,10.18,19.93,19.93,0,0,0,7.15,4.25q-1.13,1.33-1.93,2.4a24.18,24.18,0,0,1-6.95-4.76,27.75,27.75,0,0,1-6,4.43q-0.63-1.1-1.37-2.2a23.17,23.17,0,0,0,5.75-4.06,22.31,22.31,0,0,1-4.28-10h-1.57v16.56h-2.53V358.86Zm14,14.06h-7.58a19.7,19.7,0,0,0,3.68,8.16A21.07,21.07,0,0,0,630.35,372.92Z" transform="translate(-5.86 -202.71)"/><path class="cls-3" d="M645.61,356.46l2.5,1.07q-0.75,1.23-1.57,2.4h18v2.23a27,27,0,0,1-8.48,6.58,48.06,48.06,0,0,0,13.34,2.52q-1.07,1.5-1.87,2.8A50.44,50.44,0,0,1,653,370.17a73.21,73.21,0,0,1-16,4.45q-0.57-1-1.37-2.33a71.13,71.13,0,0,0,14.49-3.63,20.51,20.51,0,0,1-6.08-5.48,46.13,46.13,0,0,1-5.71,5.68q-1-1.07-1.83-1.8A33.16,33.16,0,0,0,645.61,356.46Zm-7,19.52h9.7q0.23-1.62.4-3.6h2.7q-0.21,2-.45,3.6H664.4q-0.33,6-.63,8.36-0.53,4.7-5.6,4.73-2,0-5.9-.13-0.2-1.23-.5-2.76,3.83,0.33,6.33.37a2.88,2.88,0,0,0,3.13-2.86q0.3-2.5.43-5.33H650.55q-1.77,8-12.41,11.63-0.77-1.1-1.63-2.23,9.56-3.1,11.33-9.39h-9.23V376ZM661,362.12H646.12a20.85,20.85,0,0,0,6.9,5.3A29.16,29.16,0,0,0,661,362.12Z" transform="translate(-5.86 -202.71)"/><path class="cls-3" d="M670.36,360.42h15.21q-0.64-1.18-1.55-2.63l2.57-1.17q1,1.72,2.1,3.8H703v2.36H670.36v-2.36Zm2.43,7.13h8.09q-1.15-1.68-2.5-3.33l2-1.37q1.6,1.87,2.9,3.46l-1.8,1.23h7.56a43.31,43.31,0,0,0,3.1-4.56l2.53,1.47q-1.58,1.88-2.67,3.1h8.29V385q0,4.2-3.83,4.23-2.07,0-4.66,0a25.4,25.4,0,0,0-.5-2.8q2.63,0.26,4.33.27,2.17,0,2.17-2.4V369.85H675.29v19.79h-2.5V367.55Zm9.76,2.67,1.8,1.73q-3.9,3.33-7.3,5.86a22.5,22.5,0,0,0-1.57-2A53.34,53.34,0,0,0,682.55,370.22ZM680,386.34V375.62h13.36v9h-11v1.77H680Zm11-3.9v-4.7h-8.56v4.7h8.56ZM688.41,372l1.47-1.83q4.94,3.1,7.46,5l-1.67,2.1A84.84,84.84,0,0,0,688.41,372Z" transform="translate(-5.86 -202.71)"/><path class="cls-3" d="M719.58,385.19H704.29v-1.08L715,369.47h-9.71v-2.7h14.36v1.07L709,382.49h10.58v2.7Z" transform="translate(-5.86 -202.71)"/><path class="cls-3" d="M722,372.8q0-6.83,2.26-10.34a7.34,7.34,0,0,1,6.56-3.51q8.19,0,8.19,13.22,0,6.53-2.31,10a7.35,7.35,0,0,1-6.47,3.46,6.88,6.88,0,0,1-6.09-3.28Q722,379.06,722,372.8Zm3.33-.15q0,10.28,5.21,10.28t5.13-10.44q0-10.81-5-10.81Q725.33,361.67,725.33,372.65Z" transform="translate(-5.86 -202.71)"/><path class="cls-3" d="M758.42,385.19H743.63v-2.81h5.78V362.79l-5.93,1.72v-3l9.18-2.66v23.54h5.76v2.81Z" transform="translate(-5.86 -202.71)"/><path class="cls-3" d="M762.47,383.48a2.06,2.06,0,0,1,.61-1.52,2.16,2.16,0,0,1,3.7,1.52,2,2,0,0,1-.61,1.49,2.11,2.11,0,0,1-1.57.62A2.1,2.1,0,0,1,762.47,383.48Z" transform="translate(-5.86 -202.71)"/><path class="cls-3" d="M784.35,384.36a9.75,9.75,0,0,1-5.1,1.27,8.44,8.44,0,0,1-6.43-2.57,9.27,9.27,0,0,1-2.43-6.65,10.19,10.19,0,0,1,2.62-7.3,9.21,9.21,0,0,1,7-2.77,9.59,9.59,0,0,1,4.33.9v3.23A7.14,7.14,0,0,0,780,369a5.86,5.86,0,0,0-4.55,1.94,7.41,7.41,0,0,0-1.76,5.17,7.08,7.08,0,0,0,1.66,5,5.79,5.79,0,0,0,4.47,1.8,7.42,7.42,0,0,0,4.5-1.57v3Z" transform="translate(-5.86 -202.71)"/><path class="cls-3" d="M787.49,376.18A9.94,9.94,0,0,1,790,369a9.16,9.16,0,0,1,6.91-2.64,8.43,8.43,0,0,1,6.5,2.54,11.37,11.37,0,0,1-.16,14.07,8.8,8.8,0,0,1-6.75,2.68A8.67,8.67,0,0,1,790,383,9.54,9.54,0,0,1,787.49,376.18Zm3.33-.1a7.33,7.33,0,0,0,1.61,5,5.46,5.46,0,0,0,4.32,1.83,5.18,5.18,0,0,0,4.26-1.79,9.79,9.79,0,0,0,0-10.3,5.18,5.18,0,0,0-4.26-1.8,5.38,5.38,0,0,0-4.34,1.88A7.75,7.75,0,0,0,790.83,376.08Z" transform="translate(-5.86 -202.71)"/><path class="cls-3" d="M836.93,385.19h-3.26V374.62a7.52,7.52,0,0,0-.93-4.29,3.53,3.53,0,0,0-3.07-1.29,3.78,3.78,0,0,0-3.08,1.68,6.37,6.37,0,0,0-1.28,4v10.49H822V374.28q0-5.25-4-5.25a3.73,3.73,0,0,0-3.09,1.6,6.51,6.51,0,0,0-1.23,4.08v10.48h-3.26V366.77h3.26v2.92h0.07a6.28,6.28,0,0,1,5.75-3.35,5.45,5.45,0,0,1,3.26,1,5.23,5.23,0,0,1,2,2.75,6.59,6.59,0,0,1,6.13-3.76q6.08,0,6.08,7.5v11.36Z" transform="translate(-5.86 -202.71)"/></g><ellipse id="css2" class="cls-2" cx="135.67" cy="96.93" rx="95.27" ry="96.93"/><g id="css1"><ellipse class="cls-1" cx="95.27" cy="96.93" rx="95.27" ry="96.93"/><g class="cls-4"><path class="cls-5" d="M6.3,309C65,312.8,134.14,297,137.68,295.32c-41.74-2.29-83.42-13.25-125-31.5,77.61,17.32,141.14,19.64,174.33-6.27,6.88,13.59,9.43,22.38,9.25,36C158,321.08,119.06,322,63.94,326.47c75.82,6,73.67,7,128.67,2.73C129.84,360.93,41.31,351.31,6.3,309Z" transform="translate(-5.86 -202.71)"/></g></g></svg>